<?xml version="1.0" encoding="UTF-8" standalone="no"?>
<!DOCTYPE svg PUBLIC "-//W3C//DTD SVG 1.1//EN"
 "http://www.w3.org/Graphics/SVG/1.1/DTD/svg11.dtd">
<!-- Generated by graphviz version 2.43.0 (0)
 -->
<!-- Title: dump_graph Pages: 1 -->
<svg width="1156pt" height="315pt"
 viewBox="0.00 0.00 1155.60 315.00" xmlns="http://www.w3.org/2000/svg" xmlns:xlink="http://www.w3.org/1999/xlink">
<g id="graph0" class="graph" transform="scale(1 1) rotate(0) translate(4 311)">
<title>dump_graph</title>
<polygon fill="white" stroke="transparent" points="-4,4 -4,-311 1151.6,-311 1151.6,4 -4,4"/>
<!-- struct1 -->
<g id="node1" class="node">
<title>struct1</title>
<polygon fill="none" stroke="black" points="81,-245 4,-245 0,-241 0,-153 77,-153 81,-157 81,-245"/>
<polyline fill="none" stroke="black" points="77,-241 0,-241 "/>
<polyline fill="none" stroke="black" points="77,-241 77,-153 "/>
<polyline fill="none" stroke="black" points="77,-241 81,-245 "/>
<polygon fill="lightskyblue" stroke="transparent" points="8.5,-220 8.5,-241 73.5,-241 73.5,-220 8.5,-220"/>
<polygon fill="none" stroke="black" points="8.5,-220 8.5,-241 73.5,-241 73.5,-220 8.5,-220"/>
<text text-anchor="start" x="36" y="-226.8" font-family="Times,serif" font-size="14.00">1</text>
<polygon fill="#b0b0b0" stroke="transparent" points="8.5,-199 8.5,-220 73.5,-220 73.5,-199 8.5,-199"/>
<polygon fill="none" stroke="black" points="8.5,-199 8.5,-220 73.5,-220 73.5,-199 8.5,-199"/>
<text text-anchor="start" x="16" y="-205.8" font-family="Times,serif" font-size="14.00">next: 2</text>
<polygon fill="#b0b0b0" stroke="transparent" points="8.5,-178 8.5,-199 73.5,-199 73.5,-178 8.5,-178"/>
<polygon fill="none" stroke="black" points="8.5,-178 8.5,-199 73.5,-199 73.5,-178 8.5,-178"/>
<text text-anchor="start" x="15.5" y="-184.8" font-family="Times,serif" font-size="14.00">prev: 6</text>
<polygon fill="#b0b0b0" stroke="transparent" points="8.5,-157 8.5,-178 73.5,-178 73.5,-157 8.5,-157"/>
<polygon fill="none" stroke="black" points="8.5,-157 8.5,-178 73.5,-178 73.5,-157 8.5,-157"/>
<text text-anchor="start" x="11.5" y="-163.8" font-family="Times,serif" font-size="14.00">data: 11</text>
</g>
<!-- struct2 -->
<g id="node2" class="node">
<title>struct2</title>
<polygon fill="none" stroke="black" points="198,-245 121,-245 117,-241 117,-153 194,-153 198,-157 198,-245"/>
<polyline fill="none" stroke="black" points="194,-241 117,-241 "/>
<polyline fill="none" stroke="black" points="194,-241 194,-153 "/>
<polyline fill="none" stroke="black" points="194,-241 198,-245 "/>
<polygon fill="lightskyblue" stroke="transparent" points="125.5,-220 125.5,-241 190.5,-241 190.5,-220 125.5,-220"/>
<polygon fill="none" stroke="black" points="125.5,-220 125.5,-241 190.5,-241 190.5,-220 125.5,-220"/>
<text text-anchor="start" x="153" y="-226.8" font-family="Times,serif" font-size="14.00">2</text>
<polygon fill="#b0b0b0" stroke="transparent" points="125.5,-199 125.5,-220 190.5,-220 190.5,-199 125.5,-199"/>
<polygon fill="none" stroke="black" points="125.5,-199 125.5,-220 190.5,-220 190.5,-199 125.5,-199"/>
<text text-anchor="start" x="133" y="-205.8" font-family="Times,serif" font-size="14.00">next: 3</text>
<polygon fill="#b0b0b0" stroke="transparent" points="125.5,-178 125.5,-199 190.5,-199 190.5,-178 125.5,-178"/>
<polygon fill="none" stroke="black" points="125.5,-178 125.5,-199 190.5,-199 190.5,-178 125.5,-178"/>
<text text-anchor="start" x="132.5" y="-184.8" font-family="Times,serif" font-size="14.00">prev: 1</text>
<polygon fill="#b0b0b0" stroke="transparent" points="125.5,-157 125.5,-178 190.5,-178 190.5,-157 125.5,-157"/>
<polygon fill="none" stroke="black" points="125.5,-157 125.5,-178 190.5,-178 190.5,-157 125.5,-157"/>
<text text-anchor="start" x="128.5" y="-163.8" font-family="Times,serif" font-size="14.00">data: 22</text>
</g>
<!-- struct1&#45;&gt;struct2 -->
<!-- struct1&#45;&gt;struct2 -->
<g id="edge10" class="edge">
<title>struct1:port1&#45;&gt;struct2:port1</title>
<path fill="none" stroke="forestgreen" stroke-width="2" d="M74.5,-210C92.9,-210 99.88,-210 114.35,-210"/>
<polygon fill="forestgreen" stroke="forestgreen" stroke-width="2" points="124.5,-210 114.5,-214.5 119.5,-210.5 114.5,-210.5 114.5,-210 114.5,-209.5 119.5,-209.5 114.5,-205.5 124.5,-210 124.5,-210"/>
</g>
<!-- struct6 -->
<g id="node6" class="node">
<title>struct6</title>
<polygon fill="none" stroke="black" points="779.19,-154 710.19,-154 706.19,-150 706.19,-62 775.19,-62 779.19,-66 779.19,-154"/>
<polyline fill="none" stroke="black" points="775.19,-150 706.19,-150 "/>
<polyline fill="none" stroke="black" points="775.19,-150 775.19,-62 "/>
<polyline fill="none" stroke="black" points="775.19,-150 779.19,-154 "/>
<polygon fill="lightskyblue" stroke="transparent" points="714.69,-129 714.69,-150 771.69,-150 771.69,-129 714.69,-129"/>
<polygon fill="none" stroke="black" points="714.69,-129 714.69,-150 771.69,-150 771.69,-129 714.69,-129"/>
<text text-anchor="start" x="738.19" y="-135.8" font-family="Times,serif" font-size="14.00">6</text>
<polygon fill="#b0b0b0" stroke="transparent" points="714.69,-108 714.69,-129 771.69,-129 771.69,-108 714.69,-108"/>
<polygon fill="none" stroke="black" points="714.69,-108 714.69,-129 771.69,-129 771.69,-108 714.69,-108"/>
<text text-anchor="start" x="718.19" y="-114.8" font-family="Times,serif" font-size="14.00">next: 1</text>
<polygon fill="#b0b0b0" stroke="transparent" points="714.69,-87 714.69,-108 771.69,-108 771.69,-87 714.69,-87"/>
<polygon fill="none" stroke="black" points="714.69,-87 714.69,-108 771.69,-108 771.69,-87 714.69,-87"/>
<text text-anchor="start" x="717.69" y="-93.8" font-family="Times,serif" font-size="14.00">prev: 0</text>
<polygon fill="#b0b0b0" stroke="transparent" points="714.69,-66 714.69,-87 771.69,-87 771.69,-66 714.69,-66"/>
<polygon fill="none" stroke="black" points="714.69,-66 714.69,-87 771.69,-87 771.69,-66 714.69,-66"/>
<text text-anchor="start" x="718.19" y="-72.8" font-family="Times,serif" font-size="14.00">data: 9</text>
</g>
<!-- struct1&#45;&gt;struct6 -->
<g id="edge11" class="edge">
<title>struct1:port2&#45;&gt;struct6:port2</title>
<path fill="none" stroke="grey" stroke-dasharray="5,2" d="M74.5,-188C119.54,-188 82.38,-124.81 117,-96 172.18,-50.07 201.71,-56 273.5,-56 273.5,-56 273.5,-56 411.58,-56 543.64,-56 576.54,-94.94 703.56,-96.92"/>
<polygon fill="none" stroke="grey" points="703.66,-100.42 713.69,-97 703.72,-93.42 703.66,-100.42"/>
</g>
<!-- struct2&#45;&gt;struct1 -->
<g id="edge13" class="edge">
<title>struct2:port2&#45;&gt;struct1:port2</title>
<path fill="none" stroke="grey" stroke-dasharray="5,2" d="M124.5,-188C106.1,-188 99.12,-188 84.65,-188"/>
<polygon fill="none" stroke="grey" points="84.5,-184.5 74.5,-188 84.5,-191.5 84.5,-184.5"/>
</g>
<!-- struct3 -->
<g id="node3" class="node">
<title>struct3</title>
<polygon fill="none" stroke="black" points="315,-245 238,-245 234,-241 234,-153 311,-153 315,-157 315,-245"/>
<polyline fill="none" stroke="black" points="311,-241 234,-241 "/>
<polyline fill="none" stroke="black" points="311,-241 311,-153 "/>
<polyline fill="none" stroke="black" points="311,-241 315,-245 "/>
<polygon fill="lightskyblue" stroke="transparent" points="242.5,-220 242.5,-241 307.5,-241 307.5,-220 242.5,-220"/>
<polygon fill="none" stroke="black" points="242.5,-220 242.5,-241 307.5,-241 307.5,-220 242.5,-220"/>
<text text-anchor="start" x="270" y="-226.8" font-family="Times,serif" font-size="14.00">3</text>
<polygon fill="#b0b0b0" stroke="transparent" points="242.5,-199 242.5,-220 307.5,-220 307.5,-199 242.5,-199"/>
<polygon fill="none" stroke="black" points="242.5,-199 242.5,-220 307.5,-220 307.5,-199 242.5,-199"/>
<text text-anchor="start" x="250" y="-205.8" font-family="Times,serif" font-size="14.00">next: 4</text>
<polygon fill="#b0b0b0" stroke="transparent" points="242.5,-178 242.5,-199 307.5,-199 307.5,-178 242.5,-178"/>
<polygon fill="none" stroke="black" points="242.5,-178 242.5,-199 307.5,-199 307.5,-178 242.5,-178"/>
<text text-anchor="start" x="249.5" y="-184.8" font-family="Times,serif" font-size="14.00">prev: 2</text>
<polygon fill="#b0b0b0" stroke="transparent" points="242.5,-157 242.5,-178 307.5,-178 307.5,-157 242.5,-157"/>
<polygon fill="none" stroke="black" points="242.5,-157 242.5,-178 307.5,-178 307.5,-157 242.5,-157"/>
<text text-anchor="start" x="245.5" y="-163.8" font-family="Times,serif" font-size="14.00">data: 33</text>
</g>
<!-- struct2&#45;&gt;struct3 -->
<!-- struct2&#45;&gt;struct3 -->
<g id="edge12" class="edge">
<title>struct2:port1&#45;&gt;struct3:port1</title>
<path fill="none" stroke="forestgreen" stroke-width="2" d="M191.5,-210C209.9,-210 216.88,-210 231.35,-210"/>
<polygon fill="forestgreen" stroke="forestgreen" stroke-width="2" points="241.5,-210 231.5,-214.5 236.5,-210.5 231.5,-210.5 231.5,-210 231.5,-209.5 236.5,-209.5 231.5,-205.5 241.5,-210 241.5,-210"/>
</g>
<!-- struct3&#45;&gt;struct2 -->
<g id="edge15" class="edge">
<title>struct3:port2&#45;&gt;struct2:port2</title>
<path fill="none" stroke="grey" stroke-dasharray="5,2" d="M241.5,-188C223.1,-188 216.12,-188 201.65,-188"/>
<polygon fill="none" stroke="grey" points="201.5,-184.5 191.5,-188 201.5,-191.5 201.5,-184.5"/>
</g>
<!-- struct4 -->
<g id="node4" class="node">
<title>struct4</title>
<polygon fill="none" stroke="black" points="460.08,-245 365.08,-245 361.08,-241 361.08,-153 456.08,-153 460.08,-157 460.08,-245"/>
<polyline fill="none" stroke="black" points="456.08,-241 361.08,-241 "/>
<polyline fill="none" stroke="black" points="456.08,-241 456.08,-153 "/>
<polyline fill="none" stroke="black" points="456.08,-241 460.08,-245 "/>
<polygon fill="lightskyblue" stroke="transparent" points="369.58,-220 369.58,-241 452.58,-241 452.58,-220 369.58,-220"/>
<polygon fill="none" stroke="black" points="369.58,-220 369.58,-241 452.58,-241 452.58,-220 369.58,-220"/>
<text text-anchor="start" x="406.08" y="-226.8" font-family="Times,serif" font-size="14.00">4</text>
<polygon fill="#b0b0b0" stroke="transparent" points="369.58,-199 369.58,-220 452.58,-220 452.58,-199 369.58,-199"/>
<polygon fill="none" stroke="black" points="369.58,-199 369.58,-220 452.58,-220 452.58,-199 369.58,-199"/>
<text text-anchor="start" x="386.08" y="-205.8" font-family="Times,serif" font-size="14.00">next: 5</text>
<polygon fill="#b0b0b0" stroke="transparent" points="369.58,-178 369.58,-199 452.58,-199 452.58,-178 369.58,-178"/>
<polygon fill="none" stroke="black" points="369.58,-178 369.58,-199 452.58,-199 452.58,-178 369.58,-178"/>
<text text-anchor="start" x="385.58" y="-184.8" font-family="Times,serif" font-size="14.00">prev: 3</text>
<polygon fill="#b0b0b0" stroke="transparent" points="369.58,-157 369.58,-178 452.58,-178 452.58,-157 369.58,-157"/>
<polygon fill="none" stroke="black" points="369.58,-157 369.58,-178 452.58,-178 452.58,-157 369.58,-157"/>
<text text-anchor="start" x="372.58" y="-163.8" font-family="Times,serif" font-size="14.00">data: 1488</text>
</g>
<!-- struct3&#45;&gt;struct4 -->
<!-- struct3&#45;&gt;struct4 -->
<g id="edge14" class="edge">
<title>struct3:port1&#45;&gt;struct4:port1</title>
<path fill="none" stroke="forestgreen" stroke-width="2" d="M308.5,-210C331.45,-210 339.6,-210 358.39,-210"/>
<polygon fill="forestgreen" stroke="forestgreen" stroke-width="2" points="368.58,-210 358.58,-214.5 363.58,-210.5 358.58,-210.5 358.58,-210 358.58,-209.5 363.58,-209.5 358.58,-205.5 368.58,-210 368.58,-210"/>
</g>
<!-- struct4&#45;&gt;struct3 -->
<g id="edge17" class="edge">
<title>struct4:port2&#45;&gt;struct3:port2</title>
<path fill="none" stroke="grey" stroke-dasharray="5,2" d="M368.58,-188C345.63,-188 337.47,-188 318.69,-188"/>
<polygon fill="none" stroke="grey" points="318.5,-184.5 308.5,-188 318.5,-191.5 318.5,-184.5"/>
</g>
<!-- struct5 -->
<g id="node5" class="node">
<title>struct5</title>
<polygon fill="none" stroke="black" points="618.47,-276 532.47,-276 528.47,-272 528.47,-184 614.47,-184 618.47,-188 618.47,-276"/>
<polyline fill="none" stroke="black" points="614.47,-272 528.47,-272 "/>
<polyline fill="none" stroke="black" points="614.47,-272 614.47,-184 "/>
<polyline fill="none" stroke="black" points="614.47,-272 618.47,-276 "/>
<polygon fill="lightskyblue" stroke="transparent" points="536.47,-251 536.47,-272 610.47,-272 610.47,-251 536.47,-251"/>
<polygon fill="none" stroke="black" points="536.47,-251 536.47,-272 610.47,-272 610.47,-251 536.47,-251"/>
<text text-anchor="start" x="568.47" y="-257.8" font-family="Times,serif" font-size="14.00">5</text>
<polygon fill="#b0b0b0" stroke="transparent" points="536.47,-230 536.47,-251 610.47,-251 610.47,-230 536.47,-230"/>
<polygon fill="none" stroke="black" points="536.47,-230 536.47,-251 610.47,-251 610.47,-230 536.47,-230"/>
<text text-anchor="start" x="548.47" y="-236.8" font-family="Times,serif" font-size="14.00">next: 0</text>
<polygon fill="#b0b0b0" stroke="transparent" points="536.47,-209 536.47,-230 610.47,-230 610.47,-209 536.47,-209"/>
<polygon fill="none" stroke="black" points="536.47,-209 536.47,-230 610.47,-230 610.47,-209 536.47,-209"/>
<text text-anchor="start" x="547.97" y="-215.8" font-family="Times,serif" font-size="14.00">prev: 4</text>
<polygon fill="#b0b0b0" stroke="transparent" points="536.47,-188 536.47,-209 610.47,-209 610.47,-188 536.47,-188"/>
<polygon fill="none" stroke="black" points="536.47,-188 536.47,-209 610.47,-209 610.47,-188 536.47,-188"/>
<text text-anchor="start" x="539.47" y="-194.8" font-family="Times,serif" font-size="14.00">data: 777</text>
</g>
<!-- struct4&#45;&gt;struct5 -->
<!-- struct4&#45;&gt;struct5 -->
<g id="edge16" class="edge">
<title>struct4:port1&#45;&gt;struct5:port1</title>
<path fill="none" stroke="forestgreen" stroke-width="2" d="M453.58,-210C488.84,-210 495.48,-235.46 525.38,-240.23"/>
<polygon fill="forestgreen" stroke="forestgreen" stroke-width="2" points="535.47,-241 525.15,-244.73 530.44,-241.12 525.46,-240.74 525.49,-240.24 525.53,-239.74 530.52,-240.12 525.84,-235.76 535.47,-241 535.47,-241"/>
</g>
<!-- struct5&#45;&gt;struct4 -->
<g id="edge18" class="edge">
<title>struct5:port2&#45;&gt;struct4:port2</title>
<path fill="none" stroke="grey" stroke-dasharray="5,2" d="M535.47,-219C500.2,-219 493.56,-193.54 463.66,-188.77"/>
<polygon fill="none" stroke="grey" points="463.81,-185.27 453.58,-188 463.28,-192.25 463.81,-185.27"/>
</g>
<!-- struct5&#45;&gt;struct6 -->
<!-- struct6&#45;&gt;struct1 -->
<g id="edge9" class="edge">
<title>struct6:port1&#45;&gt;struct1:port1</title>
<path fill="none" stroke="forestgreen" stroke-width="2" d="M713.69,-119C712.64,-119 412.63,-94 411.58,-94 273.5,-94 273.5,-94 273.5,-94 200.48,-94 174.95,-99.58 117,-144 92.45,-162.82 105.45,-200.16 84.39,-208.38"/>
<polygon fill="forestgreen" stroke="forestgreen" stroke-width="2" points="74.5,-210 83.64,-203.94 79.35,-208.7 84.29,-207.89 84.37,-208.38 84.45,-208.87 79.51,-209.68 85.1,-212.82 74.5,-210 74.5,-210"/>
</g>
<!-- struct7 -->
<g id="node7" class="node">
<title>struct7</title>
<polygon fill="none" stroke="black" points="921.6,-105 848.6,-105 844.6,-101 844.6,-13 917.6,-13 921.6,-17 921.6,-105"/>
<polyline fill="none" stroke="black" points="917.6,-101 844.6,-101 "/>
<polyline fill="none" stroke="black" points="917.6,-101 917.6,-13 "/>
<polyline fill="none" stroke="black" points="917.6,-101 921.6,-105 "/>
<polygon fill="lightskyblue" stroke="transparent" points="853.1,-80 853.1,-101 914.1,-101 914.1,-80 853.1,-80"/>
<polygon fill="none" stroke="black" points="853.1,-80 853.1,-101 914.1,-101 914.1,-80 853.1,-80"/>
<text text-anchor="start" x="878.6" y="-86.8" font-family="Times,serif" font-size="14.00">7</text>
<polygon fill="#b0b0b0" stroke="transparent" points="853.1,-59 853.1,-80 914.1,-80 914.1,-59 853.1,-59"/>
<polygon fill="none" stroke="black" points="853.1,-59 853.1,-80 914.1,-80 914.1,-59 853.1,-59"/>
<text text-anchor="start" x="858.6" y="-65.8" font-family="Times,serif" font-size="14.00">next: 8</text>
<polygon fill="#b0b0b0" stroke="transparent" points="853.1,-38 853.1,-59 914.1,-59 914.1,-38 853.1,-38"/>
<polygon fill="none" stroke="black" points="853.1,-38 853.1,-59 914.1,-59 914.1,-38 853.1,-38"/>
<text text-anchor="start" x="856.1" y="-44.8" font-family="Times,serif" font-size="14.00">prev: &#45;1</text>
<polygon fill="#b0b0b0" stroke="transparent" points="853.1,-17 853.1,-38 914.1,-38 914.1,-17 853.1,-17"/>
<polygon fill="none" stroke="black" points="853.1,-17 853.1,-38 914.1,-38 914.1,-17 853.1,-17"/>
<text text-anchor="start" x="858.6" y="-23.8" font-family="Times,serif" font-size="14.00">data: 0</text>
</g>
<!-- struct6&#45;&gt;struct7 -->
<!-- struct8 -->
<g id="node8" class="node">
<title>struct8</title>
<polygon fill="none" stroke="black" points="1034.6,-105 961.6,-105 957.6,-101 957.6,-13 1030.6,-13 1034.6,-17 1034.6,-105"/>
<polyline fill="none" stroke="black" points="1030.6,-101 957.6,-101 "/>
<polyline fill="none" stroke="black" points="1030.6,-101 1030.6,-13 "/>
<polyline fill="none" stroke="black" points="1030.6,-101 1034.6,-105 "/>
<polygon fill="lightskyblue" stroke="transparent" points="966.1,-80 966.1,-101 1027.1,-101 1027.1,-80 966.1,-80"/>
<polygon fill="none" stroke="black" points="966.1,-80 966.1,-101 1027.1,-101 1027.1,-80 966.1,-80"/>
<text text-anchor="start" x="991.6" y="-86.8" font-family="Times,serif" font-size="14.00">8</text>
<polygon fill="#b0b0b0" stroke="transparent" points="966.1,-59 966.1,-80 1027.1,-80 1027.1,-59 966.1,-59"/>
<polygon fill="none" stroke="black" points="966.1,-59 966.1,-80 1027.1,-80 1027.1,-59 966.1,-59"/>
<text text-anchor="start" x="971.6" y="-65.8" font-family="Times,serif" font-size="14.00">next: 9</text>
<polygon fill="#b0b0b0" stroke="transparent" points="966.1,-38 966.1,-59 1027.1,-59 1027.1,-38 966.1,-38"/>
<polygon fill="none" stroke="black" points="966.1,-38 966.1,-59 1027.1,-59 1027.1,-38 966.1,-38"/>
<text text-anchor="start" x="969.1" y="-44.8" font-family="Times,serif" font-size="14.00">prev: &#45;1</text>
<polygon fill="#b0b0b0" stroke="transparent" points="966.1,-17 966.1,-38 1027.1,-38 1027.1,-17 966.1,-17"/>
<polygon fill="none" stroke="black" points="966.1,-17 966.1,-38 1027.1,-38 1027.1,-17 966.1,-17"/>
<text text-anchor="start" x="971.6" y="-23.8" font-family="Times,serif" font-size="14.00">data: 0</text>
</g>
<!-- struct7&#45;&gt;struct8 -->
<!-- struct7&#45;&gt;struct8 -->
<g id="edge19" class="edge">
<title>struct7:port1&#45;&gt;struct8:port1</title>
<path fill="none" stroke="black" d="M915.1,-70C933.5,-70 940.47,-70 954.94,-70"/>
<polygon fill="black" stroke="black" points="955.1,-73.5 965.1,-70 955.1,-66.5 955.1,-73.5"/>
</g>
<!-- struct9 -->
<g id="node9" class="node">
<title>struct9</title>
<polygon fill="none" stroke="black" points="1147.6,-105 1074.6,-105 1070.6,-101 1070.6,-13 1143.6,-13 1147.6,-17 1147.6,-105"/>
<polyline fill="none" stroke="black" points="1143.6,-101 1070.6,-101 "/>
<polyline fill="none" stroke="black" points="1143.6,-101 1143.6,-13 "/>
<polyline fill="none" stroke="black" points="1143.6,-101 1147.6,-105 "/>
<polygon fill="lightskyblue" stroke="transparent" points="1079.1,-80 1079.1,-101 1140.1,-101 1140.1,-80 1079.1,-80"/>
<polygon fill="none" stroke="black" points="1079.1,-80 1079.1,-101 1140.1,-101 1140.1,-80 1079.1,-80"/>
<text text-anchor="start" x="1104.6" y="-86.8" font-family="Times,serif" font-size="14.00">9</text>
<polygon fill="#b0b0b0" stroke="transparent" points="1079.1,-59 1079.1,-80 1140.1,-80 1140.1,-59 1079.1,-59"/>
<polygon fill="none" stroke="black" points="1079.1,-59 1079.1,-80 1140.1,-80 1140.1,-59 1079.1,-59"/>
<text text-anchor="start" x="1084.6" y="-65.8" font-family="Times,serif" font-size="14.00">next: 0</text>
<polygon fill="#b0b0b0" stroke="transparent" points="1079.1,-38 1079.1,-59 1140.1,-59 1140.1,-38 1079.1,-38"/>
<polygon fill="none" stroke="black" points="1079.1,-38 1079.1,-59 1140.1,-59 1140.1,-38 1079.1,-38"/>
<text text-anchor="start" x="1082.1" y="-44.8" font-family="Times,serif" font-size="14.00">prev: &#45;1</text>
<polygon fill="#b0b0b0" stroke="transparent" points="1079.1,-17 1079.1,-38 1140.1,-38 1140.1,-17 1079.1,-17"/>
<polygon fill="none" stroke="black" points="1079.1,-17 1079.1,-38 1140.1,-38 1140.1,-17 1079.1,-17"/>
<text text-anchor="start" x="1084.6" y="-23.8" font-family="Times,serif" font-size="14.00">data: 0</text>
</g>
<!-- struct8&#45;&gt;struct9 -->
<!-- struct8&#45;&gt;struct9 -->
<g id="edge20" class="edge">
<title>struct8:port1&#45;&gt;struct9:port1</title>
<path fill="none" stroke="black" d="M1028.1,-70C1046.5,-70 1053.47,-70 1067.94,-70"/>
<polygon fill="black" stroke="black" points="1068.1,-73.5 1078.1,-70 1068.1,-66.5 1068.1,-73.5"/>
</g>
<!-- free -->
<g id="node10" class="node">
<title>free</title>
<polygon fill="pink" stroke="black" points="804.51,-14.54 804.51,-29.46 768.29,-40 717.08,-40 680.87,-29.46 680.87,-14.54 717.08,-4 768.29,-4 804.51,-14.54"/>
<polygon fill="none" stroke="black" points="808.5,-11.54 808.5,-32.46 768.86,-44 716.51,-44 676.87,-32.46 676.87,-11.54 716.51,0 768.86,0 808.5,-11.54"/>
<text text-anchor="middle" x="742.69" y="-18.3" font-family="Times,serif" font-size="14.00">FREE = 7</text>
</g>
<!-- free&#45;&gt;struct7 -->
<g id="edge21" class="edge">
<title>free&#45;&gt;struct7:port1</title>
<path fill="none" stroke="black" d="M782.66,-40.15C804.1,-50.02 829.01,-61.31 842.51,-66.74"/>
<polygon fill="black" stroke="black" points="841.5,-70.09 852.1,-70 843.75,-63.47 841.5,-70.09"/>
</g>
<!-- head -->
<g id="node11" class="node">
<title>head</title>
<polygon fill="pink" stroke="black" points="636.61,-136.54 636.61,-151.46 599.62,-162 547.31,-162 510.33,-151.46 510.33,-136.54 547.31,-126 599.62,-126 636.61,-136.54"/>
<polygon fill="none" stroke="black" points="640.6,-133.52 640.6,-154.48 600.18,-166 546.76,-166 506.34,-154.48 506.34,-133.52 546.76,-122 600.18,-122 640.6,-133.52"/>
<text text-anchor="middle" x="573.47" y="-140.3" font-family="Times,serif" font-size="14.00">HEAD = 6</text>
</g>
<!-- head&#45;&gt;struct6 -->
<g id="edge22" class="edge">
<title>head&#45;&gt;struct6:port1</title>
<path fill="none" stroke="black" d="M627.95,-129.82C650.66,-124.84 677.8,-120.22 703.53,-119.21"/>
<polygon fill="black" stroke="black" points="703.76,-122.7 713.69,-119 703.62,-115.7 703.76,-122.7"/>
</g>
<!-- tail -->
<g id="node12" class="node">
<title>tail</title>
<polygon fill="pink" stroke="black" points="466.22,-277.54 466.22,-292.46 433.63,-303 387.53,-303 354.93,-292.46 354.93,-277.54 387.53,-267 433.63,-267 466.22,-277.54"/>
<polygon fill="none" stroke="black" points="470.23,-274.64 470.23,-295.36 434.26,-307 386.89,-307 350.92,-295.36 350.92,-274.64 386.89,-263 434.26,-263 470.23,-274.64"/>
<text text-anchor="middle" x="410.58" y="-281.3" font-family="Times,serif" font-size="14.00">TAIL = 5</text>
</g>
<!-- tail&#45;&gt;struct5 -->
<g id="edge23" class="edge">
<title>tail&#45;&gt;struct5:port1</title>
<path fill="none" stroke="black" d="M444.63,-266.34C466.4,-255.61 496.16,-243.8 525.23,-241.43"/>
<polygon fill="black" stroke="black" points="525.62,-244.91 535.47,-241 525.33,-237.92 525.62,-244.91"/>
</g>
</g>
</svg>
