<?xml version="1.0" encoding="UTF-8" standalone="no"?>
<!DOCTYPE svg PUBLIC "-//W3C//DTD SVG 1.1//EN"
 "http://www.w3.org/Graphics/SVG/1.1/DTD/svg11.dtd">
<!-- Generated by graphviz version 2.43.0 (0)
 -->
<!-- Title: dump_graph Pages: 1 -->
<svg width="2029pt" height="418pt"
 viewBox="0.00 0.00 2028.60 418.00" xmlns="http://www.w3.org/2000/svg" xmlns:xlink="http://www.w3.org/1999/xlink">
<g id="graph0" class="graph" transform="scale(1 1) rotate(0) translate(4 414)">
<title>dump_graph</title>
<polygon fill="white" stroke="transparent" points="-4,4 -4,-414 2024.6,-414 2024.6,4 -4,4"/>
<!-- struct1 -->
<g id="node1" class="node">
<title>struct1</title>
<polygon fill="none" stroke="black" points="245.15,-394 159.15,-394 155.15,-390 155.15,-302 241.15,-302 245.15,-306 245.15,-394"/>
<polyline fill="none" stroke="black" points="241.15,-390 155.15,-390 "/>
<polyline fill="none" stroke="black" points="241.15,-390 241.15,-302 "/>
<polyline fill="none" stroke="black" points="241.15,-390 245.15,-394 "/>
<polygon fill="lightskyblue" stroke="transparent" points="163.15,-369 163.15,-390 237.15,-390 237.15,-369 163.15,-369"/>
<polygon fill="none" stroke="black" points="163.15,-369 163.15,-390 237.15,-390 237.15,-369 163.15,-369"/>
<text text-anchor="start" x="195.15" y="-375.8" font-family="Times,serif" font-size="14.00">1</text>
<polygon fill="#b0b0b0" stroke="transparent" points="163.15,-348 163.15,-369 237.15,-369 237.15,-348 163.15,-348"/>
<polygon fill="none" stroke="black" points="163.15,-348 163.15,-369 237.15,-369 237.15,-348 163.15,-348"/>
<text text-anchor="start" x="175.15" y="-354.8" font-family="Times,serif" font-size="14.00">next: 0</text>
<polygon fill="#b0b0b0" stroke="transparent" points="163.15,-327 163.15,-348 237.15,-348 237.15,-327 163.15,-327"/>
<polygon fill="none" stroke="black" points="163.15,-327 163.15,-348 237.15,-348 237.15,-327 163.15,-327"/>
<text text-anchor="start" x="174.65" y="-333.8" font-family="Times,serif" font-size="14.00">prev: 5</text>
<polygon fill="#b0b0b0" stroke="transparent" points="163.15,-306 163.15,-327 237.15,-327 237.15,-306 163.15,-306"/>
<polygon fill="none" stroke="black" points="163.15,-306 163.15,-327 237.15,-327 237.15,-306 163.15,-306"/>
<text text-anchor="start" x="166.15" y="-312.8" font-family="Times,serif" font-size="14.00">data: 777</text>
</g>
<!-- struct2 -->
<g id="node2" class="node">
<title>struct2</title>
<polygon fill="none" stroke="black" points="387.56,-182 310.56,-182 306.56,-178 306.56,-90 383.56,-90 387.56,-94 387.56,-182"/>
<polyline fill="none" stroke="black" points="383.56,-178 306.56,-178 "/>
<polyline fill="none" stroke="black" points="383.56,-178 383.56,-90 "/>
<polyline fill="none" stroke="black" points="383.56,-178 387.56,-182 "/>
<polygon fill="lightskyblue" stroke="transparent" points="315.06,-157 315.06,-178 380.06,-178 380.06,-157 315.06,-157"/>
<polygon fill="none" stroke="black" points="315.06,-157 315.06,-178 380.06,-178 380.06,-157 315.06,-157"/>
<text text-anchor="start" x="342.56" y="-163.8" font-family="Times,serif" font-size="14.00">2</text>
<polygon fill="#b0b0b0" stroke="transparent" points="315.06,-136 315.06,-157 380.06,-157 380.06,-136 315.06,-136"/>
<polygon fill="none" stroke="black" points="315.06,-136 315.06,-157 380.06,-157 380.06,-136 315.06,-136"/>
<text text-anchor="start" x="322.56" y="-142.8" font-family="Times,serif" font-size="14.00">next: 7</text>
<polygon fill="#b0b0b0" stroke="transparent" points="315.06,-115 315.06,-136 380.06,-136 380.06,-115 315.06,-115"/>
<polygon fill="none" stroke="black" points="315.06,-115 315.06,-136 380.06,-136 380.06,-115 315.06,-115"/>
<text text-anchor="start" x="322.06" y="-121.8" font-family="Times,serif" font-size="14.00">prev: 6</text>
<polygon fill="#b0b0b0" stroke="transparent" points="315.06,-94 315.06,-115 380.06,-115 380.06,-94 315.06,-94"/>
<polygon fill="none" stroke="black" points="315.06,-94 315.06,-115 380.06,-115 380.06,-94 315.06,-94"/>
<text text-anchor="start" x="318.06" y="-100.8" font-family="Times,serif" font-size="14.00">data: 11</text>
</g>
<!-- struct1&#45;&gt;struct2 -->
<!-- struct5 -->
<g id="node5" class="node">
<title>struct5</title>
<polygon fill="none" stroke="black" points="795.78,-410 700.78,-410 696.78,-406 696.78,-318 791.78,-318 795.78,-322 795.78,-410"/>
<polyline fill="none" stroke="black" points="791.78,-406 696.78,-406 "/>
<polyline fill="none" stroke="black" points="791.78,-406 791.78,-318 "/>
<polyline fill="none" stroke="black" points="791.78,-406 795.78,-410 "/>
<polygon fill="lightskyblue" stroke="transparent" points="705.28,-385 705.28,-406 788.28,-406 788.28,-385 705.28,-385"/>
<polygon fill="none" stroke="black" points="705.28,-385 705.28,-406 788.28,-406 788.28,-385 705.28,-385"/>
<text text-anchor="start" x="741.78" y="-391.8" font-family="Times,serif" font-size="14.00">5</text>
<polygon fill="#b0b0b0" stroke="transparent" points="705.28,-364 705.28,-385 788.28,-385 788.28,-364 705.28,-364"/>
<polygon fill="none" stroke="black" points="705.28,-364 705.28,-385 788.28,-385 788.28,-364 705.28,-364"/>
<text text-anchor="start" x="721.78" y="-370.8" font-family="Times,serif" font-size="14.00">next: 1</text>
<polygon fill="#b0b0b0" stroke="transparent" points="705.28,-343 705.28,-364 788.28,-364 788.28,-343 705.28,-343"/>
<polygon fill="none" stroke="black" points="705.28,-343 705.28,-364 788.28,-364 788.28,-343 705.28,-343"/>
<text text-anchor="start" x="721.28" y="-349.8" font-family="Times,serif" font-size="14.00">prev: 4</text>
<polygon fill="#b0b0b0" stroke="transparent" points="705.28,-322 705.28,-343 788.28,-343 788.28,-322 705.28,-322"/>
<polygon fill="none" stroke="black" points="705.28,-322 705.28,-343 788.28,-343 788.28,-322 705.28,-322"/>
<text text-anchor="start" x="708.28" y="-328.8" font-family="Times,serif" font-size="14.00">data: 1488</text>
</g>
<!-- struct1&#45;&gt;struct5 -->
<g id="edge24" class="edge">
<title>struct1:port2&#45;&gt;struct5:port2</title>
<path fill="none" stroke="grey" stroke-dasharray="5,2" d="M238.15,-337C442,-337 495.24,-352.47 694.08,-352.99"/>
<polygon fill="none" stroke="grey" points="694.28,-356.49 704.28,-353 694.29,-349.49 694.28,-356.49"/>
</g>
<!-- struct3 -->
<g id="node3" class="node">
<title>struct3</title>
<polygon fill="none" stroke="black" points="525.97,-262 452.97,-262 448.97,-258 448.97,-170 521.97,-170 525.97,-174 525.97,-262"/>
<polyline fill="none" stroke="black" points="521.97,-258 448.97,-258 "/>
<polyline fill="none" stroke="black" points="521.97,-258 521.97,-170 "/>
<polyline fill="none" stroke="black" points="521.97,-258 525.97,-262 "/>
<polygon fill="lightskyblue" stroke="transparent" points="457.47,-237 457.47,-258 518.47,-258 518.47,-237 457.47,-237"/>
<polygon fill="none" stroke="black" points="457.47,-237 457.47,-258 518.47,-258 518.47,-237 457.47,-237"/>
<text text-anchor="start" x="482.97" y="-243.8" font-family="Times,serif" font-size="14.00">3</text>
<polygon fill="#b0b0b0" stroke="transparent" points="457.47,-216 457.47,-237 518.47,-237 518.47,-216 457.47,-216"/>
<polygon fill="none" stroke="black" points="457.47,-216 457.47,-237 518.47,-237 518.47,-216 457.47,-216"/>
<text text-anchor="start" x="462.97" y="-222.8" font-family="Times,serif" font-size="14.00">next: 8</text>
<polygon fill="#b0b0b0" stroke="transparent" points="457.47,-195 457.47,-216 518.47,-216 518.47,-195 457.47,-195"/>
<polygon fill="none" stroke="black" points="457.47,-195 457.47,-216 518.47,-216 518.47,-195 457.47,-195"/>
<text text-anchor="start" x="460.47" y="-201.8" font-family="Times,serif" font-size="14.00">prev: &#45;1</text>
<polygon fill="#b0b0b0" stroke="transparent" points="457.47,-174 457.47,-195 518.47,-195 518.47,-174 457.47,-174"/>
<polygon fill="none" stroke="black" points="457.47,-174 457.47,-195 518.47,-195 518.47,-174 457.47,-174"/>
<text text-anchor="start" x="462.97" y="-180.8" font-family="Times,serif" font-size="14.00">data: 0</text>
</g>
<!-- struct2&#45;&gt;struct3 -->
<!-- struct6 -->
<g id="node6" class="node">
<title>struct6</title>
<polygon fill="none" stroke="black" points="939.6,-310 853.6,-310 849.6,-306 849.6,-218 935.6,-218 939.6,-222 939.6,-310"/>
<polyline fill="none" stroke="black" points="935.6,-306 849.6,-306 "/>
<polyline fill="none" stroke="black" points="935.6,-306 935.6,-218 "/>
<polyline fill="none" stroke="black" points="935.6,-306 939.6,-310 "/>
<polygon fill="lightskyblue" stroke="transparent" points="857.6,-285 857.6,-306 931.6,-306 931.6,-285 857.6,-285"/>
<polygon fill="none" stroke="black" points="857.6,-285 857.6,-306 931.6,-306 931.6,-285 857.6,-285"/>
<text text-anchor="start" x="889.6" y="-291.8" font-family="Times,serif" font-size="14.00">6</text>
<polygon fill="#b0b0b0" stroke="transparent" points="857.6,-264 857.6,-285 931.6,-285 931.6,-264 857.6,-264"/>
<polygon fill="none" stroke="black" points="857.6,-264 857.6,-285 931.6,-285 931.6,-264 857.6,-264"/>
<text text-anchor="start" x="869.6" y="-270.8" font-family="Times,serif" font-size="14.00">next: 2</text>
<polygon fill="#b0b0b0" stroke="transparent" points="857.6,-243 857.6,-264 931.6,-264 931.6,-243 857.6,-243"/>
<polygon fill="none" stroke="black" points="857.6,-243 857.6,-264 931.6,-264 931.6,-243 857.6,-243"/>
<text text-anchor="start" x="869.1" y="-249.8" font-family="Times,serif" font-size="14.00">prev: 0</text>
<polygon fill="#b0b0b0" stroke="transparent" points="857.6,-222 857.6,-243 931.6,-243 931.6,-222 857.6,-222"/>
<polygon fill="none" stroke="black" points="857.6,-222 857.6,-243 931.6,-243 931.6,-222 857.6,-222"/>
<text text-anchor="start" x="860.6" y="-228.8" font-family="Times,serif" font-size="14.00">data: 900</text>
</g>
<!-- struct2&#45;&gt;struct6 -->
<g id="edge17" class="edge">
<title>struct2:port2&#45;&gt;struct6:port2</title>
<path fill="none" stroke="grey" stroke-dasharray="5,2" d="M381.06,-125C576.89,-125 645.18,-109.06 813.6,-209 833.62,-220.88 830.89,-244.43 846.53,-251.16"/>
<polygon fill="none" stroke="grey" points="846.13,-254.65 856.6,-253 847.38,-247.76 846.13,-254.65"/>
</g>
<!-- struct7 -->
<g id="node7" class="node">
<title>struct7</title>
<polygon fill="none" stroke="black" points="1092.6,-164 979.6,-164 975.6,-160 975.6,-72 1088.6,-72 1092.6,-76 1092.6,-164"/>
<polyline fill="none" stroke="black" points="1088.6,-160 975.6,-160 "/>
<polyline fill="none" stroke="black" points="1088.6,-160 1088.6,-72 "/>
<polyline fill="none" stroke="black" points="1088.6,-160 1092.6,-164 "/>
<polygon fill="lightskyblue" stroke="transparent" points="984.1,-139 984.1,-160 1085.1,-160 1085.1,-139 984.1,-139"/>
<polygon fill="none" stroke="black" points="984.1,-139 984.1,-160 1085.1,-160 1085.1,-139 984.1,-139"/>
<text text-anchor="start" x="1029.6" y="-145.8" font-family="Times,serif" font-size="14.00">7</text>
<polygon fill="#b0b0b0" stroke="transparent" points="984.1,-118 984.1,-139 1085.1,-139 1085.1,-118 984.1,-118"/>
<polygon fill="none" stroke="black" points="984.1,-118 984.1,-139 1085.1,-139 1085.1,-118 984.1,-118"/>
<text text-anchor="start" x="1009.6" y="-124.8" font-family="Times,serif" font-size="14.00">next: 4</text>
<polygon fill="#b0b0b0" stroke="transparent" points="984.1,-97 984.1,-118 1085.1,-118 1085.1,-97 984.1,-97"/>
<polygon fill="none" stroke="black" points="984.1,-97 984.1,-118 1085.1,-118 1085.1,-97 984.1,-97"/>
<text text-anchor="start" x="1009.1" y="-103.8" font-family="Times,serif" font-size="14.00">prev: 2</text>
<polygon fill="#b0b0b0" stroke="transparent" points="984.1,-76 984.1,-97 1085.1,-97 1085.1,-76 984.1,-76"/>
<polygon fill="none" stroke="black" points="984.1,-76 984.1,-97 1085.1,-97 1085.1,-76 984.1,-76"/>
<text text-anchor="start" x="987.1" y="-82.8" font-family="Times,serif" font-size="14.00">data: 777777</text>
</g>
<!-- struct2&#45;&gt;struct7 -->
<g id="edge16" class="edge">
<title>struct2:port1&#45;&gt;struct7:port1</title>
<path fill="none" stroke="forestgreen" stroke-width="2" d="M381.06,-147C590.13,-147 640.73,-114.34 849.6,-105 889.56,-103.21 900.86,-95.02 939.6,-105 957.14,-109.52 960.31,-122.77 973.08,-127.39"/>
<polygon fill="forestgreen" stroke="forestgreen" stroke-width="2" points="983.1,-129 972.51,-131.86 978.08,-128.7 973.14,-127.91 973.22,-127.41 973.3,-126.92 978.24,-127.71 973.93,-122.97 983.1,-129 983.1,-129"/>
</g>
<!-- struct4 -->
<g id="node4" class="node">
<title>struct4</title>
<polygon fill="none" stroke="black" points="642.97,-262 565.97,-262 561.97,-258 561.97,-170 638.97,-170 642.97,-174 642.97,-262"/>
<polyline fill="none" stroke="black" points="638.97,-258 561.97,-258 "/>
<polyline fill="none" stroke="black" points="638.97,-258 638.97,-170 "/>
<polyline fill="none" stroke="black" points="638.97,-258 642.97,-262 "/>
<polygon fill="lightskyblue" stroke="transparent" points="570.47,-237 570.47,-258 635.47,-258 635.47,-237 570.47,-237"/>
<polygon fill="none" stroke="black" points="570.47,-237 570.47,-258 635.47,-258 635.47,-237 570.47,-237"/>
<text text-anchor="start" x="597.97" y="-243.8" font-family="Times,serif" font-size="14.00">4</text>
<polygon fill="#b0b0b0" stroke="transparent" points="570.47,-216 570.47,-237 635.47,-237 635.47,-216 570.47,-216"/>
<polygon fill="none" stroke="black" points="570.47,-216 570.47,-237 635.47,-237 635.47,-216 570.47,-216"/>
<text text-anchor="start" x="577.97" y="-222.8" font-family="Times,serif" font-size="14.00">next: 5</text>
<polygon fill="#b0b0b0" stroke="transparent" points="570.47,-195 570.47,-216 635.47,-216 635.47,-195 570.47,-195"/>
<polygon fill="none" stroke="black" points="570.47,-195 570.47,-216 635.47,-216 635.47,-195 570.47,-195"/>
<text text-anchor="start" x="577.47" y="-201.8" font-family="Times,serif" font-size="14.00">prev: 7</text>
<polygon fill="#b0b0b0" stroke="transparent" points="570.47,-174 570.47,-195 635.47,-195 635.47,-174 570.47,-174"/>
<polygon fill="none" stroke="black" points="570.47,-174 570.47,-195 635.47,-195 635.47,-174 570.47,-174"/>
<text text-anchor="start" x="573.47" y="-180.8" font-family="Times,serif" font-size="14.00">data: 33</text>
</g>
<!-- struct3&#45;&gt;struct4 -->
<!-- struct8 -->
<g id="node8" class="node">
<title>struct8</title>
<polygon fill="none" stroke="black" points="1205.6,-99 1132.6,-99 1128.6,-95 1128.6,-7 1201.6,-7 1205.6,-11 1205.6,-99"/>
<polyline fill="none" stroke="black" points="1201.6,-95 1128.6,-95 "/>
<polyline fill="none" stroke="black" points="1201.6,-95 1201.6,-7 "/>
<polyline fill="none" stroke="black" points="1201.6,-95 1205.6,-99 "/>
<polygon fill="lightskyblue" stroke="transparent" points="1137.1,-74 1137.1,-95 1198.1,-95 1198.1,-74 1137.1,-74"/>
<polygon fill="none" stroke="black" points="1137.1,-74 1137.1,-95 1198.1,-95 1198.1,-74 1137.1,-74"/>
<text text-anchor="start" x="1162.6" y="-80.8" font-family="Times,serif" font-size="14.00">8</text>
<polygon fill="#b0b0b0" stroke="transparent" points="1137.1,-53 1137.1,-74 1198.1,-74 1198.1,-53 1137.1,-53"/>
<polygon fill="none" stroke="black" points="1137.1,-53 1137.1,-74 1198.1,-74 1198.1,-53 1137.1,-53"/>
<text text-anchor="start" x="1142.6" y="-59.8" font-family="Times,serif" font-size="14.00">next: 9</text>
<polygon fill="#b0b0b0" stroke="transparent" points="1137.1,-32 1137.1,-53 1198.1,-53 1198.1,-32 1137.1,-32"/>
<polygon fill="none" stroke="black" points="1137.1,-32 1137.1,-53 1198.1,-53 1198.1,-32 1137.1,-32"/>
<text text-anchor="start" x="1140.1" y="-38.8" font-family="Times,serif" font-size="14.00">prev: &#45;1</text>
<polygon fill="#b0b0b0" stroke="transparent" points="1137.1,-11 1137.1,-32 1198.1,-32 1198.1,-11 1137.1,-11"/>
<polygon fill="none" stroke="black" points="1137.1,-11 1137.1,-32 1198.1,-32 1198.1,-11 1137.1,-11"/>
<text text-anchor="start" x="1142.6" y="-17.8" font-family="Times,serif" font-size="14.00">data: 0</text>
</g>
<!-- struct3&#45;&gt;struct8 -->
<g id="edge25" class="edge">
<title>struct3:port1&#45;&gt;struct8:port1</title>
<path fill="none" stroke="black" d="M519.47,-227C554.36,-227 539.2,-187.43 561.97,-161 632.74,-78.85 636.85,0 745.28,0 745.28,0 745.28,0 895.6,0 1002.75,0 1024.19,-60.06 1125.99,-63.82"/>
<polygon fill="black" stroke="black" points="1126.03,-67.32 1136.1,-64 1126.16,-60.32 1126.03,-67.32"/>
</g>
<!-- struct4&#45;&gt;struct5 -->
<!-- struct4&#45;&gt;struct5 -->
<g id="edge20" class="edge">
<title>struct4:port1&#45;&gt;struct5:port1</title>
<path fill="none" stroke="forestgreen" stroke-width="2" d="M636.47,-227C705.01,-227 639.62,-359.8 694.04,-373.81"/>
<polygon fill="forestgreen" stroke="forestgreen" stroke-width="2" points="704.28,-375 693.83,-378.31 699.26,-374.92 694.29,-374.34 694.35,-373.84 694.41,-373.35 699.37,-373.93 694.87,-369.38 704.28,-375 704.28,-375"/>
</g>
<!-- struct4&#45;&gt;struct7 -->
<g id="edge21" class="edge">
<title>struct4:port2&#45;&gt;struct7:port2</title>
<path fill="none" stroke="grey" stroke-dasharray="5,2" d="M636.47,-205C656.5,-205 659.85,-195.97 678.97,-190 809.44,-149.23 841.44,-109.01 973.03,-107.07"/>
<polygon fill="none" stroke="grey" points="973.12,-110.57 983.1,-107 973.07,-103.57 973.12,-110.57"/>
</g>
<!-- struct5&#45;&gt;struct1 -->
<g id="edge22" class="edge">
<title>struct5:port1&#45;&gt;struct1:port1</title>
<path fill="none" stroke="forestgreen" stroke-width="2" d="M704.28,-375C500.43,-375 447.2,-359.53 248.35,-359.01"/>
<polygon fill="forestgreen" stroke="forestgreen" stroke-width="2" points="238.15,-359 248.16,-354.51 243.15,-358.51 248.15,-358.51 248.15,-359.01 248.15,-359.51 243.15,-359.51 248.15,-363.51 238.15,-359 238.15,-359"/>
</g>
<!-- struct5&#45;&gt;struct4 -->
<g id="edge23" class="edge">
<title>struct5:port2&#45;&gt;struct4:port2</title>
<path fill="none" stroke="grey" stroke-dasharray="5,2" d="M704.28,-353C635.74,-353 701.13,-220.2 646.71,-206.19"/>
<polygon fill="none" stroke="grey" points="646.8,-202.68 636.47,-205 646,-209.63 646.8,-202.68"/>
</g>
<!-- struct5&#45;&gt;struct6 -->
<!-- struct6&#45;&gt;struct2 -->
<g id="edge15" class="edge">
<title>struct6:port1&#45;&gt;struct2:port1</title>
<path fill="none" stroke="forestgreen" stroke-width="2" d="M856.6,-275C675.42,-275 601.84,-368.24 448.97,-271 417.77,-251.16 431.09,-228.23 412.97,-196 402.22,-176.89 405.39,-155.14 391.04,-148.82"/>
<polygon fill="forestgreen" stroke="forestgreen" stroke-width="2" points="381.06,-147 391.7,-144.36 386.07,-147.4 390.99,-148.3 390.9,-148.79 390.81,-149.28 385.89,-148.39 390.09,-153.22 381.06,-147 381.06,-147"/>
</g>
<!-- struct6&#45;&gt;struct7 -->
<!-- struct7&#45;&gt;struct2 -->
<g id="edge19" class="edge">
<title>struct7:port2&#45;&gt;struct2:port2</title>
<path fill="none" stroke="grey" stroke-dasharray="5,2" d="M983.1,-107C955.79,-107 774.58,-38 747.28,-38 601.47,-38 601.47,-38 601.47,-38 499.65,-38 487.13,-119.32 391.24,-124.72"/>
<polygon fill="none" stroke="grey" points="390.96,-121.22 381.06,-125 391.15,-128.22 390.96,-121.22"/>
</g>
<!-- struct7&#45;&gt;struct4 -->
<g id="edge18" class="edge">
<title>struct7:port1&#45;&gt;struct4:port1</title>
<path fill="none" stroke="forestgreen" stroke-width="2" d="M983.1,-129C957.71,-129 962.62,-155.32 939.6,-166 833.09,-215.39 791.73,-176.32 678.97,-209 663.11,-213.59 658.54,-222.45 646.67,-225.73"/>
<polygon fill="forestgreen" stroke="forestgreen" stroke-width="2" points="636.47,-227 645.84,-221.3 641.37,-225.89 646.33,-225.27 646.39,-225.77 646.45,-226.26 641.49,-226.88 646.94,-230.23 636.47,-227 636.47,-227"/>
</g>
<!-- struct7&#45;&gt;struct8 -->
<!-- struct9 -->
<g id="node9" class="node">
<title>struct9</title>
<polygon fill="none" stroke="black" points="1322.6,-99 1245.6,-99 1241.6,-95 1241.6,-7 1318.6,-7 1322.6,-11 1322.6,-99"/>
<polyline fill="none" stroke="black" points="1318.6,-95 1241.6,-95 "/>
<polyline fill="none" stroke="black" points="1318.6,-95 1318.6,-7 "/>
<polyline fill="none" stroke="black" points="1318.6,-95 1322.6,-99 "/>
<polygon fill="lightskyblue" stroke="transparent" points="1250.1,-74 1250.1,-95 1315.1,-95 1315.1,-74 1250.1,-74"/>
<polygon fill="none" stroke="black" points="1250.1,-74 1250.1,-95 1315.1,-95 1315.1,-74 1250.1,-74"/>
<text text-anchor="start" x="1277.6" y="-80.8" font-family="Times,serif" font-size="14.00">9</text>
<polygon fill="#b0b0b0" stroke="transparent" points="1250.1,-53 1250.1,-74 1315.1,-74 1315.1,-53 1250.1,-53"/>
<polygon fill="none" stroke="black" points="1250.1,-53 1250.1,-74 1315.1,-74 1315.1,-53 1250.1,-53"/>
<text text-anchor="start" x="1253.1" y="-59.8" font-family="Times,serif" font-size="14.00">next: 10</text>
<polygon fill="#b0b0b0" stroke="transparent" points="1250.1,-32 1250.1,-53 1315.1,-53 1315.1,-32 1250.1,-32"/>
<polygon fill="none" stroke="black" points="1250.1,-32 1250.1,-53 1315.1,-53 1315.1,-32 1250.1,-32"/>
<text text-anchor="start" x="1255.1" y="-38.8" font-family="Times,serif" font-size="14.00">prev: &#45;1</text>
<polygon fill="#b0b0b0" stroke="transparent" points="1250.1,-11 1250.1,-32 1315.1,-32 1315.1,-11 1250.1,-11"/>
<polygon fill="none" stroke="black" points="1250.1,-11 1250.1,-32 1315.1,-32 1315.1,-11 1250.1,-11"/>
<text text-anchor="start" x="1257.6" y="-17.8" font-family="Times,serif" font-size="14.00">data: 0</text>
</g>
<!-- struct8&#45;&gt;struct9 -->
<!-- struct8&#45;&gt;struct9 -->
<g id="edge26" class="edge">
<title>struct8:port1&#45;&gt;struct9:port1</title>
<path fill="none" stroke="black" d="M1199.1,-64C1217.5,-64 1224.47,-64 1238.94,-64"/>
<polygon fill="black" stroke="black" points="1239.1,-67.5 1249.1,-64 1239.1,-60.5 1239.1,-67.5"/>
</g>
<!-- struct10 -->
<g id="node10" class="node">
<title>struct10</title>
<polygon fill="none" stroke="black" points="1439.6,-99 1362.6,-99 1358.6,-95 1358.6,-7 1435.6,-7 1439.6,-11 1439.6,-99"/>
<polyline fill="none" stroke="black" points="1435.6,-95 1358.6,-95 "/>
<polyline fill="none" stroke="black" points="1435.6,-95 1435.6,-7 "/>
<polyline fill="none" stroke="black" points="1435.6,-95 1439.6,-99 "/>
<polygon fill="lightskyblue" stroke="transparent" points="1367.1,-74 1367.1,-95 1432.1,-95 1432.1,-74 1367.1,-74"/>
<polygon fill="none" stroke="black" points="1367.1,-74 1367.1,-95 1432.1,-95 1432.1,-74 1367.1,-74"/>
<text text-anchor="start" x="1390.1" y="-80.8" font-family="Times,serif" font-size="14.00">10</text>
<polygon fill="#b0b0b0" stroke="transparent" points="1367.1,-53 1367.1,-74 1432.1,-74 1432.1,-53 1367.1,-53"/>
<polygon fill="none" stroke="black" points="1367.1,-53 1367.1,-74 1432.1,-74 1432.1,-53 1367.1,-53"/>
<text text-anchor="start" x="1370.1" y="-59.8" font-family="Times,serif" font-size="14.00">next: 11</text>
<polygon fill="#b0b0b0" stroke="transparent" points="1367.1,-32 1367.1,-53 1432.1,-53 1432.1,-32 1367.1,-32"/>
<polygon fill="none" stroke="black" points="1367.1,-32 1367.1,-53 1432.1,-53 1432.1,-32 1367.1,-32"/>
<text text-anchor="start" x="1372.1" y="-38.8" font-family="Times,serif" font-size="14.00">prev: &#45;1</text>
<polygon fill="#b0b0b0" stroke="transparent" points="1367.1,-11 1367.1,-32 1432.1,-32 1432.1,-11 1367.1,-11"/>
<polygon fill="none" stroke="black" points="1367.1,-11 1367.1,-32 1432.1,-32 1432.1,-11 1367.1,-11"/>
<text text-anchor="start" x="1374.6" y="-17.8" font-family="Times,serif" font-size="14.00">data: 0</text>
</g>
<!-- struct9&#45;&gt;struct10 -->
<!-- struct9&#45;&gt;struct10 -->
<g id="edge27" class="edge">
<title>struct9:port1&#45;&gt;struct10:port1</title>
<path fill="none" stroke="black" d="M1316.1,-64C1334.5,-64 1341.47,-64 1355.94,-64"/>
<polygon fill="black" stroke="black" points="1356.1,-67.5 1366.1,-64 1356.1,-60.5 1356.1,-67.5"/>
</g>
<!-- struct11 -->
<g id="node11" class="node">
<title>struct11</title>
<polygon fill="none" stroke="black" points="1556.6,-99 1479.6,-99 1475.6,-95 1475.6,-7 1552.6,-7 1556.6,-11 1556.6,-99"/>
<polyline fill="none" stroke="black" points="1552.6,-95 1475.6,-95 "/>
<polyline fill="none" stroke="black" points="1552.6,-95 1552.6,-7 "/>
<polyline fill="none" stroke="black" points="1552.6,-95 1556.6,-99 "/>
<polygon fill="lightskyblue" stroke="transparent" points="1484.1,-74 1484.1,-95 1549.1,-95 1549.1,-74 1484.1,-74"/>
<polygon fill="none" stroke="black" points="1484.1,-74 1484.1,-95 1549.1,-95 1549.1,-74 1484.1,-74"/>
<text text-anchor="start" x="1507.1" y="-80.8" font-family="Times,serif" font-size="14.00">11</text>
<polygon fill="#b0b0b0" stroke="transparent" points="1484.1,-53 1484.1,-74 1549.1,-74 1549.1,-53 1484.1,-53"/>
<polygon fill="none" stroke="black" points="1484.1,-53 1484.1,-74 1549.1,-74 1549.1,-53 1484.1,-53"/>
<text text-anchor="start" x="1487.1" y="-59.8" font-family="Times,serif" font-size="14.00">next: 12</text>
<polygon fill="#b0b0b0" stroke="transparent" points="1484.1,-32 1484.1,-53 1549.1,-53 1549.1,-32 1484.1,-32"/>
<polygon fill="none" stroke="black" points="1484.1,-32 1484.1,-53 1549.1,-53 1549.1,-32 1484.1,-32"/>
<text text-anchor="start" x="1489.1" y="-38.8" font-family="Times,serif" font-size="14.00">prev: &#45;1</text>
<polygon fill="#b0b0b0" stroke="transparent" points="1484.1,-11 1484.1,-32 1549.1,-32 1549.1,-11 1484.1,-11"/>
<polygon fill="none" stroke="black" points="1484.1,-11 1484.1,-32 1549.1,-32 1549.1,-11 1484.1,-11"/>
<text text-anchor="start" x="1491.6" y="-17.8" font-family="Times,serif" font-size="14.00">data: 0</text>
</g>
<!-- struct10&#45;&gt;struct11 -->
<!-- struct10&#45;&gt;struct11 -->
<g id="edge28" class="edge">
<title>struct10:port1&#45;&gt;struct11:port1</title>
<path fill="none" stroke="black" d="M1433.1,-64C1451.5,-64 1458.47,-64 1472.94,-64"/>
<polygon fill="black" stroke="black" points="1473.1,-67.5 1483.1,-64 1473.1,-60.5 1473.1,-67.5"/>
</g>
<!-- struct12 -->
<g id="node12" class="node">
<title>struct12</title>
<polygon fill="none" stroke="black" points="1673.6,-99 1596.6,-99 1592.6,-95 1592.6,-7 1669.6,-7 1673.6,-11 1673.6,-99"/>
<polyline fill="none" stroke="black" points="1669.6,-95 1592.6,-95 "/>
<polyline fill="none" stroke="black" points="1669.6,-95 1669.6,-7 "/>
<polyline fill="none" stroke="black" points="1669.6,-95 1673.6,-99 "/>
<polygon fill="lightskyblue" stroke="transparent" points="1601.1,-74 1601.1,-95 1666.1,-95 1666.1,-74 1601.1,-74"/>
<polygon fill="none" stroke="black" points="1601.1,-74 1601.1,-95 1666.1,-95 1666.1,-74 1601.1,-74"/>
<text text-anchor="start" x="1624.1" y="-80.8" font-family="Times,serif" font-size="14.00">12</text>
<polygon fill="#b0b0b0" stroke="transparent" points="1601.1,-53 1601.1,-74 1666.1,-74 1666.1,-53 1601.1,-53"/>
<polygon fill="none" stroke="black" points="1601.1,-53 1601.1,-74 1666.1,-74 1666.1,-53 1601.1,-53"/>
<text text-anchor="start" x="1604.1" y="-59.8" font-family="Times,serif" font-size="14.00">next: 13</text>
<polygon fill="#b0b0b0" stroke="transparent" points="1601.1,-32 1601.1,-53 1666.1,-53 1666.1,-32 1601.1,-32"/>
<polygon fill="none" stroke="black" points="1601.1,-32 1601.1,-53 1666.1,-53 1666.1,-32 1601.1,-32"/>
<text text-anchor="start" x="1606.1" y="-38.8" font-family="Times,serif" font-size="14.00">prev: &#45;1</text>
<polygon fill="#b0b0b0" stroke="transparent" points="1601.1,-11 1601.1,-32 1666.1,-32 1666.1,-11 1601.1,-11"/>
<polygon fill="none" stroke="black" points="1601.1,-11 1601.1,-32 1666.1,-32 1666.1,-11 1601.1,-11"/>
<text text-anchor="start" x="1608.6" y="-17.8" font-family="Times,serif" font-size="14.00">data: 0</text>
</g>
<!-- struct11&#45;&gt;struct12 -->
<!-- struct11&#45;&gt;struct12 -->
<g id="edge29" class="edge">
<title>struct11:port1&#45;&gt;struct12:port1</title>
<path fill="none" stroke="black" d="M1550.1,-64C1568.5,-64 1575.47,-64 1589.94,-64"/>
<polygon fill="black" stroke="black" points="1590.1,-67.5 1600.1,-64 1590.1,-60.5 1590.1,-67.5"/>
</g>
<!-- struct13 -->
<g id="node13" class="node">
<title>struct13</title>
<polygon fill="none" stroke="black" points="1790.6,-99 1713.6,-99 1709.6,-95 1709.6,-7 1786.6,-7 1790.6,-11 1790.6,-99"/>
<polyline fill="none" stroke="black" points="1786.6,-95 1709.6,-95 "/>
<polyline fill="none" stroke="black" points="1786.6,-95 1786.6,-7 "/>
<polyline fill="none" stroke="black" points="1786.6,-95 1790.6,-99 "/>
<polygon fill="lightskyblue" stroke="transparent" points="1718.1,-74 1718.1,-95 1783.1,-95 1783.1,-74 1718.1,-74"/>
<polygon fill="none" stroke="black" points="1718.1,-74 1718.1,-95 1783.1,-95 1783.1,-74 1718.1,-74"/>
<text text-anchor="start" x="1741.1" y="-80.8" font-family="Times,serif" font-size="14.00">13</text>
<polygon fill="#b0b0b0" stroke="transparent" points="1718.1,-53 1718.1,-74 1783.1,-74 1783.1,-53 1718.1,-53"/>
<polygon fill="none" stroke="black" points="1718.1,-53 1718.1,-74 1783.1,-74 1783.1,-53 1718.1,-53"/>
<text text-anchor="start" x="1721.1" y="-59.8" font-family="Times,serif" font-size="14.00">next: 14</text>
<polygon fill="#b0b0b0" stroke="transparent" points="1718.1,-32 1718.1,-53 1783.1,-53 1783.1,-32 1718.1,-32"/>
<polygon fill="none" stroke="black" points="1718.1,-32 1718.1,-53 1783.1,-53 1783.1,-32 1718.1,-32"/>
<text text-anchor="start" x="1723.1" y="-38.8" font-family="Times,serif" font-size="14.00">prev: &#45;1</text>
<polygon fill="#b0b0b0" stroke="transparent" points="1718.1,-11 1718.1,-32 1783.1,-32 1783.1,-11 1718.1,-11"/>
<polygon fill="none" stroke="black" points="1718.1,-11 1718.1,-32 1783.1,-32 1783.1,-11 1718.1,-11"/>
<text text-anchor="start" x="1725.6" y="-17.8" font-family="Times,serif" font-size="14.00">data: 0</text>
</g>
<!-- struct12&#45;&gt;struct13 -->
<!-- struct12&#45;&gt;struct13 -->
<g id="edge30" class="edge">
<title>struct12:port1&#45;&gt;struct13:port1</title>
<path fill="none" stroke="black" d="M1667.1,-64C1685.5,-64 1692.47,-64 1706.94,-64"/>
<polygon fill="black" stroke="black" points="1707.1,-67.5 1717.1,-64 1707.1,-60.5 1707.1,-67.5"/>
</g>
<!-- struct14 -->
<g id="node14" class="node">
<title>struct14</title>
<polygon fill="none" stroke="black" points="1907.6,-99 1830.6,-99 1826.6,-95 1826.6,-7 1903.6,-7 1907.6,-11 1907.6,-99"/>
<polyline fill="none" stroke="black" points="1903.6,-95 1826.6,-95 "/>
<polyline fill="none" stroke="black" points="1903.6,-95 1903.6,-7 "/>
<polyline fill="none" stroke="black" points="1903.6,-95 1907.6,-99 "/>
<polygon fill="lightskyblue" stroke="transparent" points="1835.1,-74 1835.1,-95 1900.1,-95 1900.1,-74 1835.1,-74"/>
<polygon fill="none" stroke="black" points="1835.1,-74 1835.1,-95 1900.1,-95 1900.1,-74 1835.1,-74"/>
<text text-anchor="start" x="1858.1" y="-80.8" font-family="Times,serif" font-size="14.00">14</text>
<polygon fill="#b0b0b0" stroke="transparent" points="1835.1,-53 1835.1,-74 1900.1,-74 1900.1,-53 1835.1,-53"/>
<polygon fill="none" stroke="black" points="1835.1,-53 1835.1,-74 1900.1,-74 1900.1,-53 1835.1,-53"/>
<text text-anchor="start" x="1838.1" y="-59.8" font-family="Times,serif" font-size="14.00">next: 15</text>
<polygon fill="#b0b0b0" stroke="transparent" points="1835.1,-32 1835.1,-53 1900.1,-53 1900.1,-32 1835.1,-32"/>
<polygon fill="none" stroke="black" points="1835.1,-32 1835.1,-53 1900.1,-53 1900.1,-32 1835.1,-32"/>
<text text-anchor="start" x="1840.1" y="-38.8" font-family="Times,serif" font-size="14.00">prev: &#45;1</text>
<polygon fill="#b0b0b0" stroke="transparent" points="1835.1,-11 1835.1,-32 1900.1,-32 1900.1,-11 1835.1,-11"/>
<polygon fill="none" stroke="black" points="1835.1,-11 1835.1,-32 1900.1,-32 1900.1,-11 1835.1,-11"/>
<text text-anchor="start" x="1842.6" y="-17.8" font-family="Times,serif" font-size="14.00">data: 0</text>
</g>
<!-- struct13&#45;&gt;struct14 -->
<!-- struct13&#45;&gt;struct14 -->
<g id="edge31" class="edge">
<title>struct13:port1&#45;&gt;struct14:port1</title>
<path fill="none" stroke="black" d="M1784.1,-64C1802.5,-64 1809.47,-64 1823.94,-64"/>
<polygon fill="black" stroke="black" points="1824.1,-67.5 1834.1,-64 1824.1,-60.5 1824.1,-67.5"/>
</g>
<!-- struct15 -->
<g id="node15" class="node">
<title>struct15</title>
<polygon fill="none" stroke="black" points="2020.6,-99 1947.6,-99 1943.6,-95 1943.6,-7 2016.6,-7 2020.6,-11 2020.6,-99"/>
<polyline fill="none" stroke="black" points="2016.6,-95 1943.6,-95 "/>
<polyline fill="none" stroke="black" points="2016.6,-95 2016.6,-7 "/>
<polyline fill="none" stroke="black" points="2016.6,-95 2020.6,-99 "/>
<polygon fill="lightskyblue" stroke="transparent" points="1952.1,-74 1952.1,-95 2013.1,-95 2013.1,-74 1952.1,-74"/>
<polygon fill="none" stroke="black" points="1952.1,-74 1952.1,-95 2013.1,-95 2013.1,-74 1952.1,-74"/>
<text text-anchor="start" x="1973.1" y="-80.8" font-family="Times,serif" font-size="14.00">15</text>
<polygon fill="#b0b0b0" stroke="transparent" points="1952.1,-53 1952.1,-74 2013.1,-74 2013.1,-53 1952.1,-53"/>
<polygon fill="none" stroke="black" points="1952.1,-53 1952.1,-74 2013.1,-74 2013.1,-53 1952.1,-53"/>
<text text-anchor="start" x="1957.6" y="-59.8" font-family="Times,serif" font-size="14.00">next: 0</text>
<polygon fill="#b0b0b0" stroke="transparent" points="1952.1,-32 1952.1,-53 2013.1,-53 2013.1,-32 1952.1,-32"/>
<polygon fill="none" stroke="black" points="1952.1,-32 1952.1,-53 2013.1,-53 2013.1,-32 1952.1,-32"/>
<text text-anchor="start" x="1955.1" y="-38.8" font-family="Times,serif" font-size="14.00">prev: &#45;1</text>
<polygon fill="#b0b0b0" stroke="transparent" points="1952.1,-11 1952.1,-32 2013.1,-32 2013.1,-11 1952.1,-11"/>
<polygon fill="none" stroke="black" points="1952.1,-11 1952.1,-32 2013.1,-32 2013.1,-11 1952.1,-11"/>
<text text-anchor="start" x="1957.6" y="-17.8" font-family="Times,serif" font-size="14.00">data: 0</text>
</g>
<!-- struct14&#45;&gt;struct15 -->
<!-- struct14&#45;&gt;struct15 -->
<g id="edge32" class="edge">
<title>struct14:port1&#45;&gt;struct15:port1</title>
<path fill="none" stroke="black" d="M1901.1,-64C1919.5,-64 1926.47,-64 1940.94,-64"/>
<polygon fill="black" stroke="black" points="1941.1,-67.5 1951.1,-64 1941.1,-60.5 1941.1,-67.5"/>
</g>
<!-- free -->
<g id="node16" class="node">
<title>free</title>
<polygon fill="pink" stroke="black" points="408.88,-219.54 408.88,-234.46 372.67,-245 321.45,-245 285.24,-234.46 285.24,-219.54 321.45,-209 372.67,-209 408.88,-219.54"/>
<polygon fill="none" stroke="black" points="412.87,-216.54 412.87,-237.46 373.23,-249 320.88,-249 281.24,-237.46 281.24,-216.54 320.88,-205 373.23,-205 412.87,-216.54"/>
<text text-anchor="middle" x="347.06" y="-223.3" font-family="Times,serif" font-size="14.00">FREE = 3</text>
</g>
<!-- free&#45;&gt;struct3 -->
<g id="edge33" class="edge">
<title>free&#45;&gt;struct3:port1</title>
<path fill="none" stroke="black" d="M413.12,-227C424.06,-227 435.44,-227 446.46,-227"/>
<polygon fill="black" stroke="black" points="446.47,-230.5 456.47,-227 446.47,-223.5 446.47,-230.5"/>
</g>
<!-- head -->
<g id="node17" class="node">
<title>head</title>
<polygon fill="pink" stroke="black" points="809.42,-232.54 809.42,-247.46 772.43,-258 720.13,-258 683.14,-247.46 683.14,-232.54 720.13,-222 772.43,-222 809.42,-232.54"/>
<polygon fill="none" stroke="black" points="813.41,-229.52 813.41,-250.48 772.99,-262 719.57,-262 679.15,-250.48 679.15,-229.52 719.57,-218 772.99,-218 813.41,-229.52"/>
<text text-anchor="middle" x="746.28" y="-236.3" font-family="Times,serif" font-size="14.00">HEAD = 6</text>
</g>
<!-- head&#45;&gt;struct6 -->
<g id="edge34" class="edge">
<title>head&#45;&gt;struct6:port1</title>
<path fill="none" stroke="black" d="M785.29,-258.52C803.08,-265.77 825.03,-272.78 846.47,-274.57"/>
<polygon fill="black" stroke="black" points="846.45,-278.07 856.6,-275 846.75,-271.08 846.45,-278.07"/>
</g>
<!-- tail -->
<g id="node18" class="node">
<title>tail</title>
<polygon fill="pink" stroke="black" points="115.22,-351.54 115.22,-366.46 82.63,-377 36.53,-377 3.93,-366.46 3.93,-351.54 36.53,-341 82.63,-341 115.22,-351.54"/>
<polygon fill="none" stroke="black" points="119.23,-348.64 119.23,-369.36 83.26,-381 35.89,-381 -0.08,-369.36 -0.08,-348.64 35.89,-337 83.26,-337 119.23,-348.64"/>
<text text-anchor="middle" x="59.58" y="-355.3" font-family="Times,serif" font-size="14.00">TAIL = 1</text>
</g>
<!-- tail&#45;&gt;struct1 -->
<g id="edge35" class="edge">
<title>tail&#45;&gt;struct1:port1</title>
<path fill="none" stroke="black" d="M119.39,-359C130.01,-359 141.14,-359 151.93,-359"/>
<polygon fill="black" stroke="black" points="152.15,-362.5 162.15,-359 152.15,-355.5 152.15,-362.5"/>
</g>
</g>
</svg>
