<?xml version="1.0" encoding="UTF-8" standalone="no"?>
<!DOCTYPE svg PUBLIC "-//W3C//DTD SVG 1.1//EN"
 "http://www.w3.org/Graphics/SVG/1.1/DTD/svg11.dtd">
<!-- Generated by graphviz version 2.43.0 (0)
 -->
<!-- Title: dump_graph Pages: 1 -->
<svg width="701pt" height="145pt"
 viewBox="0.00 0.00 701.00 145.00" xmlns="http://www.w3.org/2000/svg" xmlns:xlink="http://www.w3.org/1999/xlink">
<g id="graph0" class="graph" transform="scale(1 1) rotate(0) translate(4 141)">
<title>dump_graph</title>
<polygon fill="white" stroke="transparent" points="-4,4 -4,-141 697,-141 697,4 -4,4"/>
<!-- struct1 -->
<g id="node1" class="node">
<title>struct1</title>
<polygon fill="none" stroke="black" points="0,-0.5 0,-92.5 67,-92.5 67,-0.5 0,-0.5"/>
<text text-anchor="middle" x="33.5" y="-77.3" font-family="Times,serif" font-size="14.00">1</text>
<polyline fill="none" stroke="black" points="0,-69.5 67,-69.5 "/>
<text text-anchor="middle" x="33.5" y="-54.3" font-family="Times,serif" font-size="14.00">next: 2</text>
<polyline fill="none" stroke="black" points="0,-46.5 67,-46.5 "/>
<text text-anchor="middle" x="33.5" y="-31.3" font-family="Times,serif" font-size="14.00">prev: 0</text>
<polyline fill="none" stroke="black" points="0,-23.5 67,-23.5 "/>
<text text-anchor="middle" x="33.5" y="-8.3" font-family="Times,serif" font-size="14.00">10</text>
</g>
<!-- struct2 -->
<g id="node2" class="node">
<title>struct2</title>
<polygon fill="none" stroke="black" points="103,-0.5 103,-92.5 170,-92.5 170,-0.5 103,-0.5"/>
<text text-anchor="middle" x="136.5" y="-77.3" font-family="Times,serif" font-size="14.00">2</text>
<polyline fill="none" stroke="black" points="103,-69.5 170,-69.5 "/>
<text text-anchor="middle" x="136.5" y="-54.3" font-family="Times,serif" font-size="14.00">next: 3</text>
<polyline fill="none" stroke="black" points="103,-46.5 170,-46.5 "/>
<text text-anchor="middle" x="136.5" y="-31.3" font-family="Times,serif" font-size="14.00">prev: 1</text>
<polyline fill="none" stroke="black" points="103,-23.5 170,-23.5 "/>
<text text-anchor="middle" x="136.5" y="-8.3" font-family="Times,serif" font-size="14.00">11</text>
</g>
<!-- struct1&#45;&gt;struct2 -->
<!-- struct1&#45;&gt;struct2 -->
<g id="edge7" class="edge">
<title>struct1:f1&#45;&gt;struct2:f1</title>
<path fill="none" stroke="black" d="M67,-58.5C79,-58.5 84.25,-58.5 92.88,-58.5"/>
<polygon fill="black" stroke="black" points="93,-62 103,-58.5 93,-55 93,-62"/>
</g>
<!-- struct2&#45;&gt;struct1 -->
<g id="edge9" class="edge">
<title>struct2:f2&#45;&gt;struct1:f2</title>
<path fill="none" stroke="black" d="M103,-34.5C91,-34.5 85.75,-34.5 77.12,-34.5"/>
<polygon fill="black" stroke="black" points="77,-31 67,-34.5 77,-38 77,-31"/>
</g>
<!-- struct3 -->
<g id="node3" class="node">
<title>struct3</title>
<polygon fill="none" stroke="black" points="206,-0.5 206,-92.5 273,-92.5 273,-0.5 206,-0.5"/>
<text text-anchor="middle" x="239.5" y="-77.3" font-family="Times,serif" font-size="14.00">3</text>
<polyline fill="none" stroke="black" points="206,-69.5 273,-69.5 "/>
<text text-anchor="middle" x="239.5" y="-54.3" font-family="Times,serif" font-size="14.00">next: 5</text>
<polyline fill="none" stroke="black" points="206,-46.5 273,-46.5 "/>
<text text-anchor="middle" x="239.5" y="-31.3" font-family="Times,serif" font-size="14.00">prev: 2</text>
<polyline fill="none" stroke="black" points="206,-23.5 273,-23.5 "/>
<text text-anchor="middle" x="239.5" y="-8.3" font-family="Times,serif" font-size="14.00">22</text>
</g>
<!-- struct2&#45;&gt;struct3 -->
<!-- struct2&#45;&gt;struct3 -->
<g id="edge8" class="edge">
<title>struct2:f1&#45;&gt;struct3:f1</title>
<path fill="none" stroke="black" d="M170,-58.5C182,-58.5 187.25,-58.5 195.88,-58.5"/>
<polygon fill="black" stroke="black" points="196,-62 206,-58.5 196,-55 196,-62"/>
</g>
<!-- struct3&#45;&gt;struct2 -->
<g id="edge11" class="edge">
<title>struct3:f2&#45;&gt;struct2:f2</title>
<path fill="none" stroke="black" d="M206,-34.5C194,-34.5 188.75,-34.5 180.12,-34.5"/>
<polygon fill="black" stroke="black" points="180,-31 170,-34.5 180,-38 180,-31"/>
</g>
<!-- struct4 -->
<g id="node4" class="node">
<title>struct4</title>
<polygon fill="none" stroke="black" points="309,-44.5 309,-136.5 376,-136.5 376,-44.5 309,-44.5"/>
<text text-anchor="middle" x="342.5" y="-121.3" font-family="Times,serif" font-size="14.00">4</text>
<polyline fill="none" stroke="black" points="309,-113.5 376,-113.5 "/>
<text text-anchor="middle" x="342.5" y="-98.3" font-family="Times,serif" font-size="14.00">next: 4</text>
<polyline fill="none" stroke="black" points="309,-90.5 376,-90.5 "/>
<text text-anchor="middle" x="342.5" y="-75.3" font-family="Times,serif" font-size="14.00">prev: 3</text>
<polyline fill="none" stroke="black" points="309,-67.5 376,-67.5 "/>
<text text-anchor="middle" x="342.5" y="-52.3" font-family="Times,serif" font-size="14.00">1488</text>
</g>
<!-- struct3&#45;&gt;struct4 -->
<!-- struct5 -->
<g id="node5" class="node">
<title>struct5</title>
<polygon fill="none" stroke="black" points="412,-0.5 412,-92.5 479,-92.5 479,-0.5 412,-0.5"/>
<text text-anchor="middle" x="445.5" y="-77.3" font-family="Times,serif" font-size="14.00">5</text>
<polyline fill="none" stroke="black" points="412,-69.5 479,-69.5 "/>
<text text-anchor="middle" x="445.5" y="-54.3" font-family="Times,serif" font-size="14.00">next: 0</text>
<polyline fill="none" stroke="black" points="412,-46.5 479,-46.5 "/>
<text text-anchor="middle" x="445.5" y="-31.3" font-family="Times,serif" font-size="14.00">prev: 5</text>
<polyline fill="none" stroke="black" points="412,-23.5 479,-23.5 "/>
<text text-anchor="middle" x="445.5" y="-8.3" font-family="Times,serif" font-size="14.00">777</text>
</g>
<!-- struct3&#45;&gt;struct5 -->
<g id="edge10" class="edge">
<title>struct3:f1&#45;&gt;struct5:f1</title>
<path fill="none" stroke="black" d="M273,-58.5C291.99,-58.5 290.78,-40.82 309,-35.5 337.58,-27.15 347.42,-27.15 376,-35.5 390.24,-39.66 392.61,-51.36 402.02,-56.28"/>
<polygon fill="black" stroke="black" points="401.48,-59.74 412,-58.5 403,-52.91 401.48,-59.74"/>
</g>
<!-- struct4&#45;&gt;struct5 -->
<!-- struct5&#45;&gt;struct5 -->
<g id="edge12" class="edge">
<title>struct5:f2&#45;&gt;struct5:f2</title>
<path fill="none" stroke="black" d="M411.66,-40.45C386.43,-42.53 361,-40.55 361,-34.5 361,-29.26 380.12,-27.07 401.66,-27.93"/>
<polygon fill="black" stroke="black" points="401.47,-31.43 411.66,-28.55 401.89,-24.44 401.47,-31.43"/>
</g>
<!-- struct6 -->
<g id="node6" class="node">
<title>struct6</title>
<polygon fill="none" stroke="black" points="515,-0.5 515,-92.5 586,-92.5 586,-0.5 515,-0.5"/>
<text text-anchor="middle" x="550.5" y="-77.3" font-family="Times,serif" font-size="14.00">6</text>
<polyline fill="none" stroke="black" points="515,-69.5 586,-69.5 "/>
<text text-anchor="middle" x="550.5" y="-54.3" font-family="Times,serif" font-size="14.00">next: 7</text>
<polyline fill="none" stroke="black" points="515,-46.5 586,-46.5 "/>
<text text-anchor="middle" x="550.5" y="-31.3" font-family="Times,serif" font-size="14.00">prev: &#45;1</text>
<polyline fill="none" stroke="black" points="515,-23.5 586,-23.5 "/>
<text text-anchor="middle" x="550.5" y="-8.3" font-family="Times,serif" font-size="14.00">0</text>
</g>
<!-- struct5&#45;&gt;struct6 -->
<!-- struct7 -->
<g id="node7" class="node">
<title>struct7</title>
<polygon fill="none" stroke="black" points="622,-0.5 622,-92.5 693,-92.5 693,-0.5 622,-0.5"/>
<text text-anchor="middle" x="657.5" y="-77.3" font-family="Times,serif" font-size="14.00">7</text>
<polyline fill="none" stroke="black" points="622,-69.5 693,-69.5 "/>
<text text-anchor="middle" x="657.5" y="-54.3" font-family="Times,serif" font-size="14.00">next: 0</text>
<polyline fill="none" stroke="black" points="622,-46.5 693,-46.5 "/>
<text text-anchor="middle" x="657.5" y="-31.3" font-family="Times,serif" font-size="14.00">prev: &#45;1</text>
<polyline fill="none" stroke="black" points="622,-23.5 693,-23.5 "/>
<text text-anchor="middle" x="657.5" y="-8.3" font-family="Times,serif" font-size="14.00">0</text>
</g>
<!-- struct6&#45;&gt;struct7 -->
<!-- struct6&#45;&gt;struct7 -->
<g id="edge13" class="edge">
<title>struct6:f1&#45;&gt;struct7:f1</title>
<path fill="none" stroke="black" d="M586,-58.5C598,-58.5 603.25,-58.5 611.88,-58.5"/>
<polygon fill="black" stroke="black" points="612,-62 622,-58.5 612,-55 612,-62"/>
</g>
</g>
</svg>
