<?xml version="1.0" encoding="UTF-8" standalone="no"?>
<!DOCTYPE svg PUBLIC "-//W3C//DTD SVG 1.1//EN"
 "http://www.w3.org/Graphics/SVG/1.1/DTD/svg11.dtd">
<!-- Generated by graphviz version 2.43.0 (0)
 -->
<!-- Title: structs Pages: 1 -->
<svg width="188pt" height="228pt"
 viewBox="0.00 0.00 188.00 227.50" xmlns="http://www.w3.org/2000/svg" xmlns:xlink="http://www.w3.org/1999/xlink">
<g id="graph0" class="graph" transform="scale(1 1) rotate(0) translate(4 223.5)">
<title>structs</title>
<polygon fill="white" stroke="transparent" points="-4,4 -4,-223.5 184,-223.5 184,4 -4,4"/>
<!-- struct1 -->
<g id="node1" class="node">
<title>struct1</title>
<polygon fill="none" stroke="black" points="0,-121.5 0,-190.5 70,-190.5 70,-121.5 0,-121.5"/>
<text text-anchor="middle" x="35" y="-175.3" font-family="Times,serif" font-size="14.00">left</text>
<polyline fill="none" stroke="black" points="0,-167.5 70,-167.5 "/>
<text text-anchor="middle" x="35" y="-152.3" font-family="Times,serif" font-size="14.00">mid dle</text>
<polyline fill="none" stroke="black" points="0,-144.5 70,-144.5 "/>
<text text-anchor="middle" x="35" y="-129.3" font-family="Times,serif" font-size="14.00">right</text>
</g>
<!-- struct2 -->
<g id="node2" class="node">
<title>struct2</title>
<polygon fill="none" stroke="black" points="116,-173 116,-219 170,-219 170,-173 116,-173"/>
<text text-anchor="middle" x="143" y="-203.8" font-family="Times,serif" font-size="14.00">one</text>
<polyline fill="none" stroke="black" points="116,-196 170,-196 "/>
<text text-anchor="middle" x="143" y="-180.8" font-family="Times,serif" font-size="14.00">two</text>
</g>
<!-- struct1&#45;&gt;struct2 -->
<g id="edge1" class="edge">
<title>struct1:f1&#45;&gt;struct2:f0</title>
<path fill="none" stroke="black" d="M70,-156C96.5,-156 87.9,-195.1 105.07,-205.49"/>
<polygon fill="black" stroke="black" points="104.45,-208.94 115,-208 106.16,-202.16 104.45,-208.94"/>
</g>
<!-- struct3 -->
<g id="node3" class="node">
<title>struct3</title>
<polygon fill="none" stroke="black" points="106,-0.5 106,-153.5 180,-153.5 180,-0.5 106,-0.5"/>
<text text-anchor="middle" x="143" y="-138.3" font-family="Times,serif" font-size="14.00">hello</text>
<text text-anchor="middle" x="143" y="-123.3" font-family="Times,serif" font-size="14.00">world</text>
<polyline fill="none" stroke="black" points="106,-115.5 180,-115.5 "/>
<text text-anchor="middle" x="119" y="-77.3" font-family="Times,serif" font-size="14.00">b</text>
<polyline fill="none" stroke="black" points="132,-46.5 132,-115.5 "/>
<text text-anchor="middle" x="145" y="-100.3" font-family="Times,serif" font-size="14.00">c</text>
<polyline fill="none" stroke="black" points="132,-92.5 158,-92.5 "/>
<text text-anchor="middle" x="145" y="-77.3" font-family="Times,serif" font-size="14.00">d</text>
<polyline fill="none" stroke="black" points="132,-69.5 158,-69.5 "/>
<text text-anchor="middle" x="145" y="-54.3" font-family="Times,serif" font-size="14.00">e</text>
<polyline fill="none" stroke="black" points="158,-46.5 158,-115.5 "/>
<text text-anchor="middle" x="169" y="-77.3" font-family="Times,serif" font-size="14.00">f</text>
<polyline fill="none" stroke="black" points="106,-46.5 180,-46.5 "/>
<text text-anchor="middle" x="143" y="-31.3" font-family="Times,serif" font-size="14.00">g</text>
<polyline fill="none" stroke="black" points="106,-23.5 180,-23.5 "/>
<text text-anchor="middle" x="143" y="-8.3" font-family="Times,serif" font-size="14.00">h</text>
</g>
<!-- struct1&#45;&gt;struct3 -->
<g id="edge2" class="edge">
<title>struct1:f2&#45;&gt;struct3:here</title>
<path fill="none" stroke="black" d="M70,-133C82.23,-133 106.98,-114.09 124.7,-99.08"/>
<polygon fill="black" stroke="black" points="127,-101.72 132.28,-92.54 122.43,-96.42 127,-101.72"/>
</g>
</g>
</svg>
